<?xml version="1.0" encoding="utf-8"?>
<!DOCTYPE svg PUBLIC "-//W3C//DTD SVG 20010904//EN" "http://www.w3.org/TR/2001/REC-SVG-20010904/DTD/svg10.dtd">
<svg xmlns="http://www.w3.org/2000/svg" xml:space="preserve" xmlns:xlink="http://www.w3.org/1999/xlink" width="999" height="999" viewBox="0 0 999 999">
<defs>
<mask id="qrmask"><g fill="#ffffff">
<g transform="translate(270,54) scale(4.5)"><circle cx="3" cy="3" r="3"/></g>
<g transform="translate(297,54) scale(4.5)"><circle cx="3" cy="3" r="3"/></g>
<g transform="translate(324,54) scale(4.5)"><circle cx="3" cy="3" r="3"/></g>
<g transform="translate(432,54) scale(4.5)"><circle cx="3" cy="3" r="3"/></g>
<g transform="translate(459,54) scale(4.5)"><circle cx="3" cy="3" r="3"/></g>
<g transform="translate(540,54) scale(4.5)"><circle cx="3" cy="3" r="3"/></g>
<g transform="translate(567,54) scale(4.5)"><circle cx="3" cy="3" r="3"/></g>
<g transform="translate(594,54) scale(4.5)"><circle cx="3" cy="3" r="3"/></g>
<g transform="translate(621,54) scale(4.5)"><circle cx="3" cy="3" r="3"/></g>
<g transform="translate(675,54) scale(4.5)"><circle cx="3" cy="3" r="3"/></g>
<g transform="translate(702,54) scale(4.5)"><circle cx="3" cy="3" r="3"/></g>
<g transform="translate(270,81) scale(4.5)"><circle cx="3" cy="3" r="3"/></g>
<g transform="translate(297,81) scale(4.5)"><circle cx="3" cy="3" r="3"/></g>
<g transform="translate(324,81) scale(4.5)"><circle cx="3" cy="3" r="3"/></g>
<g transform="translate(405,81) scale(4.5)"><circle cx="3" cy="3" r="3"/></g>
<g transform="translate(513,81) scale(4.5)"><circle cx="3" cy="3" r="3"/></g>
<g transform="translate(540,81) scale(4.5)"><circle cx="3" cy="3" r="3"/></g>
<g transform="translate(594,81) scale(4.5)"><circle cx="3" cy="3" r="3"/></g>
<g transform="translate(702,81) scale(4.5)"><circle cx="3" cy="3" r="3"/></g>
<g transform="translate(270,108) scale(4.5)"><circle cx="3" cy="3" r="3"/></g>
<g transform="translate(378,108) scale(4.5)"><circle cx="3" cy="3" r="3"/></g>
<g transform="translate(486,108) scale(4.5)"><circle cx="3" cy="3" r="3"/></g>
<g transform="translate(513,108) scale(4.5)"><circle cx="3" cy="3" r="3"/></g>
<g transform="translate(621,108) scale(4.5)"><circle cx="3" cy="3" r="3"/></g>
<g transform="translate(675,108) scale(4.5)"><circle cx="3" cy="3" r="3"/></g>
<g transform="translate(702,108) scale(4.5)"><circle cx="3" cy="3" r="3"/></g>
<g transform="translate(351,135) scale(4.5)"><circle cx="3" cy="3" r="3"/></g>
<g transform="translate(432,135) scale(4.5)"><circle cx="3" cy="3" r="3"/></g>
<g transform="translate(459,135) scale(4.5)"><circle cx="3" cy="3" r="3"/></g>
<g transform="translate(486,135) scale(4.5)"><circle cx="3" cy="3" r="3"/></g>
<g transform="translate(513,135) scale(4.5)"><circle cx="3" cy="3" r="3"/></g>
<g transform="translate(567,135) scale(4.5)"><circle cx="3" cy="3" r="3"/></g>
<g transform="translate(594,135) scale(4.5)"><circle cx="3" cy="3" r="3"/></g>
<g transform="translate(648,135) scale(4.5)"><circle cx="3" cy="3" r="3"/></g>
<g transform="translate(675,135) scale(4.5)"><circle cx="3" cy="3" r="3"/></g>
<g transform="translate(297,162) scale(4.5)"><circle cx="3" cy="3" r="3"/></g>
<g transform="translate(324,162) scale(4.5)"><circle cx="3" cy="3" r="3"/></g>
<g transform="translate(351,162) scale(4.5)"><circle cx="3" cy="3" r="3"/></g>
<g transform="translate(432,162) scale(4.5)"><circle cx="3" cy="3" r="3"/></g>
<g transform="translate(459,162) scale(4.5)"><circle cx="3" cy="3" r="3"/></g>
<g transform="translate(486,162) scale(4.5)"><circle cx="3" cy="3" r="3"/></g>
<g transform="translate(540,162) scale(4.5)"><circle cx="3" cy="3" r="3"/></g>
<g transform="translate(567,162) scale(4.5)"><circle cx="3" cy="3" r="3"/></g>
<g transform="translate(594,162) scale(4.5)"><circle cx="3" cy="3" r="3"/></g>
<g transform="translate(702,162) scale(4.5)"><circle cx="3" cy="3" r="3"/></g>
<g transform="translate(270,189) scale(4.5)"><circle cx="3" cy="3" r="3"/></g>
<g transform="translate(297,189) scale(4.5)"><circle cx="3" cy="3" r="3"/></g>
<g transform="translate(324,189) scale(4.5)"><circle cx="3" cy="3" r="3"/></g>
<g transform="translate(378,189) scale(4.5)"><circle cx="3" cy="3" r="3"/></g>
<g transform="translate(432,189) scale(4.5)"><circle cx="3" cy="3" r="3"/></g>
<g transform="translate(486,189) scale(4.5)"><circle cx="3" cy="3" r="3"/></g>
<g transform="translate(540,189) scale(4.5)"><circle cx="3" cy="3" r="3"/></g>
<g transform="translate(594,189) scale(4.5)"><circle cx="3" cy="3" r="3"/></g>
<g transform="translate(270,216) scale(4.5)"><circle cx="3" cy="3" r="3"/></g>
<g transform="translate(324,216) scale(4.5)"><circle cx="3" cy="3" r="3"/></g>
<g transform="translate(378,216) scale(4.5)"><circle cx="3" cy="3" r="3"/></g>
<g transform="translate(432,216) scale(4.5)"><circle cx="3" cy="3" r="3"/></g>
<g transform="translate(486,216) scale(4.5)"><circle cx="3" cy="3" r="3"/></g>
<g transform="translate(540,216) scale(4.5)"><circle cx="3" cy="3" r="3"/></g>
<g transform="translate(594,216) scale(4.5)"><circle cx="3" cy="3" r="3"/></g>
<g transform="translate(648,216) scale(4.5)"><circle cx="3" cy="3" r="3"/></g>
<g transform="translate(702,216) scale(4.5)"><circle cx="3" cy="3" r="3"/></g>
<g transform="translate(270,243) scale(4.5)"><circle cx="3" cy="3" r="3"/></g>
<g transform="translate(324,243) scale(4.5)"><circle cx="3" cy="3" r="3"/></g>
<g transform="translate(351,243) scale(4.5)"><circle cx="3" cy="3" r="3"/></g>
<g transform="translate(378,243) scale(4.5)"><circle cx="3" cy="3" r="3"/></g>
<g transform="translate(405,243) scale(4.5)"><circle cx="3" cy="3" r="3"/></g>
<g transform="translate(486,243) scale(4.5)"><circle cx="3" cy="3" r="3"/></g>
<g transform="translate(540,243) scale(4.5)"><circle cx="3" cy="3" r="3"/></g>
<g transform="translate(567,243) scale(4.5)"><circle cx="3" cy="3" r="3"/></g>
<g transform="translate(621,243) scale(4.5)"><circle cx="3" cy="3" r="3"/></g>
<g transform="translate(648,243) scale(4.5)"><circle cx="3" cy="3" r="3"/></g>
<g transform="translate(702,243) scale(4.5)"><circle cx="3" cy="3" r="3"/></g>
<g transform="translate(108,270) scale(4.5)"><circle cx="3" cy="3" r="3"/></g>
<g transform="translate(135,270) scale(4.5)"><circle cx="3" cy="3" r="3"/></g>
<g transform="translate(162,270) scale(4.5)"><circle cx="3" cy="3" r="3"/></g>
<g transform="translate(216,270) scale(4.5)"><circle cx="3" cy="3" r="3"/></g>
<g transform="translate(270,270) scale(4.5)"><circle cx="3" cy="3" r="3"/></g>
<g transform="translate(324,270) scale(4.5)"><circle cx="3" cy="3" r="3"/></g>
<g transform="translate(378,270) scale(4.5)"><circle cx="3" cy="3" r="3"/></g>
<g transform="translate(432,270) scale(4.5)"><circle cx="3" cy="3" r="3"/></g>
<g transform="translate(459,270) scale(4.5)"><circle cx="3" cy="3" r="3"/></g>
<g transform="translate(594,270) scale(4.5)"><circle cx="3" cy="3" r="3"/></g>
<g transform="translate(648,270) scale(4.5)"><circle cx="3" cy="3" r="3"/></g>
<g transform="translate(729,270) scale(4.5)"><circle cx="3" cy="3" r="3"/></g>
<g transform="translate(756,270) scale(4.5)"><circle cx="3" cy="3" r="3"/></g>
<g transform="translate(783,270) scale(4.5)"><circle cx="3" cy="3" r="3"/></g>
<g transform="translate(864,270) scale(4.5)"><circle cx="3" cy="3" r="3"/></g>
<g transform="translate(891,270) scale(4.5)"><circle cx="3" cy="3" r="3"/></g>
<g transform="translate(918,270) scale(4.5)"><circle cx="3" cy="3" r="3"/></g>
<g transform="translate(135,297) scale(4.5)"><circle cx="3" cy="3" r="3"/></g>
<g transform="translate(270,297) scale(4.5)"><circle cx="3" cy="3" r="3"/></g>
<g transform="translate(351,297) scale(4.5)"><circle cx="3" cy="3" r="3"/></g>
<g transform="translate(378,297) scale(4.5)"><circle cx="3" cy="3" r="3"/></g>
<g transform="translate(486,297) scale(4.5)"><circle cx="3" cy="3" r="3"/></g>
<g transform="translate(594,297) scale(4.5)"><circle cx="3" cy="3" r="3"/></g>
<g transform="translate(729,297) scale(4.5)"><circle cx="3" cy="3" r="3"/></g>
<g transform="translate(756,297) scale(4.5)"><circle cx="3" cy="3" r="3"/></g>
<g transform="translate(864,297) scale(4.5)"><circle cx="3" cy="3" r="3"/></g>
<g transform="translate(918,297) scale(4.5)"><circle cx="3" cy="3" r="3"/></g>
<g transform="translate(54,324) scale(4.5)"><circle cx="3" cy="3" r="3"/></g>
<g transform="translate(81,324) scale(4.5)"><circle cx="3" cy="3" r="3"/></g>
<g transform="translate(135,324) scale(4.5)"><circle cx="3" cy="3" r="3"/></g>
<g transform="translate(162,324) scale(4.5)"><circle cx="3" cy="3" r="3"/></g>
<g transform="translate(216,324) scale(4.5)"><circle cx="3" cy="3" r="3"/></g>
<g transform="translate(243,324) scale(4.5)"><circle cx="3" cy="3" r="3"/></g>
<g transform="translate(324,324) scale(4.5)"><circle cx="3" cy="3" r="3"/></g>
<g transform="translate(432,324) scale(4.5)"><circle cx="3" cy="3" r="3"/></g>
<g transform="translate(459,324) scale(4.5)"><circle cx="3" cy="3" r="3"/></g>
<g transform="translate(486,324) scale(4.5)"><circle cx="3" cy="3" r="3"/></g>
<g transform="translate(594,324) scale(4.5)"><circle cx="3" cy="3" r="3"/></g>
<g transform="translate(648,324) scale(4.5)"><circle cx="3" cy="3" r="3"/></g>
<g transform="translate(675,324) scale(4.5)"><circle cx="3" cy="3" r="3"/></g>
<g transform="translate(729,324) scale(4.5)"><circle cx="3" cy="3" r="3"/></g>
<g transform="translate(783,324) scale(4.5)"><circle cx="3" cy="3" r="3"/></g>
<g transform="translate(837,324) scale(4.5)"><circle cx="3" cy="3" r="3"/></g>
<g transform="translate(891,324) scale(4.5)"><circle cx="3" cy="3" r="3"/></g>
<g transform="translate(81,351) scale(4.5)"><circle cx="3" cy="3" r="3"/></g>
<g transform="translate(135,351) scale(4.5)"><circle cx="3" cy="3" r="3"/></g>
<g transform="translate(270,351) scale(4.5)"><circle cx="3" cy="3" r="3"/></g>
<g transform="translate(297,351) scale(4.5)"><circle cx="3" cy="3" r="3"/></g>
<g transform="translate(351,351) scale(4.5)"><circle cx="3" cy="3" r="3"/></g>
<g transform="translate(405,351) scale(4.5)"><circle cx="3" cy="3" r="3"/></g>
<g transform="translate(432,351) scale(4.5)"><circle cx="3" cy="3" r="3"/></g>
<g transform="translate(513,351) scale(4.5)"><circle cx="3" cy="3" r="3"/></g>
<g transform="translate(540,351) scale(4.5)"><circle cx="3" cy="3" r="3"/></g>
<g transform="translate(837,351) scale(4.5)"><circle cx="3" cy="3" r="3"/></g>
<g transform="translate(864,351) scale(4.5)"><circle cx="3" cy="3" r="3"/></g>
<g transform="translate(891,351) scale(4.5)"><circle cx="3" cy="3" r="3"/></g>
<g transform="translate(54,378) scale(4.5)"><circle cx="3" cy="3" r="3"/></g>
<g transform="translate(108,378) scale(4.5)"><circle cx="3" cy="3" r="3"/></g>
<g transform="translate(135,378) scale(4.5)"><circle cx="3" cy="3" r="3"/></g>
<g transform="translate(162,378) scale(4.5)"><circle cx="3" cy="3" r="3"/></g>
<g transform="translate(216,378) scale(4.5)"><circle cx="3" cy="3" r="3"/></g>
<g transform="translate(243,378) scale(4.5)"><circle cx="3" cy="3" r="3"/></g>
<g transform="translate(297,378) scale(4.5)"><circle cx="3" cy="3" r="3"/></g>
<g transform="translate(351,378) scale(4.5)"><circle cx="3" cy="3" r="3"/></g>
<g transform="translate(459,378) scale(4.5)"><circle cx="3" cy="3" r="3"/></g>
<g transform="translate(513,378) scale(4.5)"><circle cx="3" cy="3" r="3"/></g>
<g transform="translate(594,378) scale(4.5)"><circle cx="3" cy="3" r="3"/></g>
<g transform="translate(621,378) scale(4.5)"><circle cx="3" cy="3" r="3"/></g>
<g transform="translate(648,378) scale(4.5)"><circle cx="3" cy="3" r="3"/></g>
<g transform="translate(675,378) scale(4.5)"><circle cx="3" cy="3" r="3"/></g>
<g transform="translate(702,378) scale(4.5)"><circle cx="3" cy="3" r="3"/></g>
<g transform="translate(729,378) scale(4.5)"><circle cx="3" cy="3" r="3"/></g>
<g transform="translate(783,378) scale(4.5)"><circle cx="3" cy="3" r="3"/></g>
<g transform="translate(837,378) scale(4.5)"><circle cx="3" cy="3" r="3"/></g>
<g transform="translate(864,378) scale(4.5)"><circle cx="3" cy="3" r="3"/></g>
<g transform="translate(918,378) scale(4.5)"><circle cx="3" cy="3" r="3"/></g>
<g transform="translate(108,405) scale(4.5)"><circle cx="3" cy="3" r="3"/></g>
<g transform="translate(162,405) scale(4.5)"><circle cx="3" cy="3" r="3"/></g>
<g transform="translate(189,405) scale(4.5)"><circle cx="3" cy="3" r="3"/></g>
<g transform="translate(243,405) scale(4.5)"><circle cx="3" cy="3" r="3"/></g>
<g transform="translate(297,405) scale(4.5)"><circle cx="3" cy="3" r="3"/></g>
<g transform="translate(324,405) scale(4.5)"><circle cx="3" cy="3" r="3"/></g>
<g transform="translate(405,405) scale(4.5)"><circle cx="3" cy="3" r="3"/></g>
<g transform="translate(459,405) scale(4.5)"><circle cx="3" cy="3" r="3"/></g>
<g transform="translate(513,405) scale(4.5)"><circle cx="3" cy="3" r="3"/></g>
<g transform="translate(567,405) scale(4.5)"><circle cx="3" cy="3" r="3"/></g>
<g transform="translate(594,405) scale(4.5)"><circle cx="3" cy="3" r="3"/></g>
<g transform="translate(675,405) scale(4.5)"><circle cx="3" cy="3" r="3"/></g>
<g transform="translate(729,405) scale(4.5)"><circle cx="3" cy="3" r="3"/></g>
<g transform="translate(756,405) scale(4.5)"><circle cx="3" cy="3" r="3"/></g>
<g transform="translate(810,405) scale(4.5)"><circle cx="3" cy="3" r="3"/></g>
<g transform="translate(918,405) scale(4.5)"><circle cx="3" cy="3" r="3"/></g>
<g transform="translate(54,432) scale(4.5)"><circle cx="3" cy="3" r="3"/></g>
<g transform="translate(81,432) scale(4.5)"><circle cx="3" cy="3" r="3"/></g>
<g transform="translate(108,432) scale(4.5)"><circle cx="3" cy="3" r="3"/></g>
<g transform="translate(162,432) scale(4.5)"><circle cx="3" cy="3" r="3"/></g>
<g transform="translate(189,432) scale(4.5)"><circle cx="3" cy="3" r="3"/></g>
<g transform="translate(216,432) scale(4.5)"><circle cx="3" cy="3" r="3"/></g>
<g transform="translate(243,432) scale(4.5)"><circle cx="3" cy="3" r="3"/></g>
<g transform="translate(270,432) scale(4.5)"><circle cx="3" cy="3" r="3"/></g>
<g transform="translate(324,432) scale(4.5)"><circle cx="3" cy="3" r="3"/></g>
<g transform="translate(351,432) scale(4.5)"><circle cx="3" cy="3" r="3"/></g>
<g transform="translate(378,432) scale(4.5)"><circle cx="3" cy="3" r="3"/></g>
<g transform="translate(405,432) scale(4.5)"><circle cx="3" cy="3" r="3"/></g>
<g transform="translate(432,432) scale(4.5)"><circle cx="3" cy="3" r="3"/></g>
<g transform="translate(459,432) scale(4.5)"><circle cx="3" cy="3" r="3"/></g>
<g transform="translate(513,432) scale(4.5)"><circle cx="3" cy="3" r="3"/></g>
<g transform="translate(540,432) scale(4.5)"><circle cx="3" cy="3" r="3"/></g>
<g transform="translate(594,432) scale(4.5)"><circle cx="3" cy="3" r="3"/></g>
<g transform="translate(648,432) scale(4.5)"><circle cx="3" cy="3" r="3"/></g>
<g transform="translate(702,432) scale(4.5)"><circle cx="3" cy="3" r="3"/></g>
<g transform="translate(729,432) scale(4.5)"><circle cx="3" cy="3" r="3"/></g>
<g transform="translate(756,432) scale(4.5)"><circle cx="3" cy="3" r="3"/></g>
<g transform="translate(783,432) scale(4.5)"><circle cx="3" cy="3" r="3"/></g>
<g transform="translate(810,432) scale(4.5)"><circle cx="3" cy="3" r="3"/></g>
<g transform="translate(837,432) scale(4.5)"><circle cx="3" cy="3" r="3"/></g>
<g transform="translate(864,432) scale(4.5)"><circle cx="3" cy="3" r="3"/></g>
<g transform="translate(891,432) scale(4.5)"><circle cx="3" cy="3" r="3"/></g>
<g transform="translate(54,459) scale(4.5)"><circle cx="3" cy="3" r="3"/></g>
<g transform="translate(81,459) scale(4.5)"><circle cx="3" cy="3" r="3"/></g>
<g transform="translate(108,459) scale(4.5)"><circle cx="3" cy="3" r="3"/></g>
<g transform="translate(135,459) scale(4.5)"><circle cx="3" cy="3" r="3"/></g>
<g transform="translate(189,459) scale(4.5)"><circle cx="3" cy="3" r="3"/></g>
<g transform="translate(243,459) scale(4.5)"><circle cx="3" cy="3" r="3"/></g>
<g transform="translate(270,459) scale(4.5)"><circle cx="3" cy="3" r="3"/></g>
<g transform="translate(297,459) scale(4.5)"><circle cx="3" cy="3" r="3"/></g>
<g transform="translate(324,459) scale(4.5)"><circle cx="3" cy="3" r="3"/></g>
<g transform="translate(405,459) scale(4.5)"><circle cx="3" cy="3" r="3"/></g>
<g transform="translate(459,459) scale(4.5)"><circle cx="3" cy="3" r="3"/></g>
<g transform="translate(486,459) scale(4.5)"><circle cx="3" cy="3" r="3"/></g>
<g transform="translate(513,459) scale(4.5)"><circle cx="3" cy="3" r="3"/></g>
<g transform="translate(567,459) scale(4.5)"><circle cx="3" cy="3" r="3"/></g>
<g transform="translate(594,459) scale(4.5)"><circle cx="3" cy="3" r="3"/></g>
<g transform="translate(621,459) scale(4.5)"><circle cx="3" cy="3" r="3"/></g>
<g transform="translate(648,459) scale(4.5)"><circle cx="3" cy="3" r="3"/></g>
<g transform="translate(675,459) scale(4.5)"><circle cx="3" cy="3" r="3"/></g>
<g transform="translate(729,459) scale(4.5)"><circle cx="3" cy="3" r="3"/></g>
<g transform="translate(756,459) scale(4.5)"><circle cx="3" cy="3" r="3"/></g>
<g transform="translate(810,459) scale(4.5)"><circle cx="3" cy="3" r="3"/></g>
<g transform="translate(837,459) scale(4.5)"><circle cx="3" cy="3" r="3"/></g>
<g transform="translate(891,459) scale(4.5)"><circle cx="3" cy="3" r="3"/></g>
<g transform="translate(54,486) scale(4.5)"><circle cx="3" cy="3" r="3"/></g>
<g transform="translate(216,486) scale(4.5)"><circle cx="3" cy="3" r="3"/></g>
<g transform="translate(297,486) scale(4.5)"><circle cx="3" cy="3" r="3"/></g>
<g transform="translate(324,486) scale(4.5)"><circle cx="3" cy="3" r="3"/></g>
<g transform="translate(351,486) scale(4.5)"><circle cx="3" cy="3" r="3"/></g>
<g transform="translate(405,486) scale(4.5)"><circle cx="3" cy="3" r="3"/></g>
<g transform="translate(459,486) scale(4.5)"><circle cx="3" cy="3" r="3"/></g>
<g transform="translate(486,486) scale(4.5)"><circle cx="3" cy="3" r="3"/></g>
<g transform="translate(567,486) scale(4.5)"><circle cx="3" cy="3" r="3"/></g>
<g transform="translate(594,486) scale(4.5)"><circle cx="3" cy="3" r="3"/></g>
<g transform="translate(675,486) scale(4.5)"><circle cx="3" cy="3" r="3"/></g>
<g transform="translate(783,486) scale(4.5)"><circle cx="3" cy="3" r="3"/></g>
<g transform="translate(810,486) scale(4.5)"><circle cx="3" cy="3" r="3"/></g>
<g transform="translate(891,486) scale(4.5)"><circle cx="3" cy="3" r="3"/></g>
<g transform="translate(135,513) scale(4.5)"><circle cx="3" cy="3" r="3"/></g>
<g transform="translate(162,513) scale(4.5)"><circle cx="3" cy="3" r="3"/></g>
<g transform="translate(270,513) scale(4.5)"><circle cx="3" cy="3" r="3"/></g>
<g transform="translate(405,513) scale(4.5)"><circle cx="3" cy="3" r="3"/></g>
<g transform="translate(459,513) scale(4.5)"><circle cx="3" cy="3" r="3"/></g>
<g transform="translate(513,513) scale(4.5)"><circle cx="3" cy="3" r="3"/></g>
<g transform="translate(540,513) scale(4.5)"><circle cx="3" cy="3" r="3"/></g>
<g transform="translate(567,513) scale(4.5)"><circle cx="3" cy="3" r="3"/></g>
<g transform="translate(621,513) scale(4.5)"><circle cx="3" cy="3" r="3"/></g>
<g transform="translate(675,513) scale(4.5)"><circle cx="3" cy="3" r="3"/></g>
<g transform="translate(702,513) scale(4.5)"><circle cx="3" cy="3" r="3"/></g>
<g transform="translate(756,513) scale(4.5)"><circle cx="3" cy="3" r="3"/></g>
<g transform="translate(891,513) scale(4.5)"><circle cx="3" cy="3" r="3"/></g>
<g transform="translate(54,540) scale(4.5)"><circle cx="3" cy="3" r="3"/></g>
<g transform="translate(81,540) scale(4.5)"><circle cx="3" cy="3" r="3"/></g>
<g transform="translate(108,540) scale(4.5)"><circle cx="3" cy="3" r="3"/></g>
<g transform="translate(189,540) scale(4.5)"><circle cx="3" cy="3" r="3"/></g>
<g transform="translate(216,540) scale(4.5)"><circle cx="3" cy="3" r="3"/></g>
<g transform="translate(243,540) scale(4.5)"><circle cx="3" cy="3" r="3"/></g>
<g transform="translate(297,540) scale(4.5)"><circle cx="3" cy="3" r="3"/></g>
<g transform="translate(405,540) scale(4.5)"><circle cx="3" cy="3" r="3"/></g>
<g transform="translate(486,540) scale(4.5)"><circle cx="3" cy="3" r="3"/></g>
<g transform="translate(567,540) scale(4.5)"><circle cx="3" cy="3" r="3"/></g>
<g transform="translate(594,540) scale(4.5)"><circle cx="3" cy="3" r="3"/></g>
<g transform="translate(621,540) scale(4.5)"><circle cx="3" cy="3" r="3"/></g>
<g transform="translate(648,540) scale(4.5)"><circle cx="3" cy="3" r="3"/></g>
<g transform="translate(783,540) scale(4.5)"><circle cx="3" cy="3" r="3"/></g>
<g transform="translate(864,540) scale(4.5)"><circle cx="3" cy="3" r="3"/></g>
<g transform="translate(891,540) scale(4.5)"><circle cx="3" cy="3" r="3"/></g>
<g transform="translate(918,540) scale(4.5)"><circle cx="3" cy="3" r="3"/></g>
<g transform="translate(162,567) scale(4.5)"><circle cx="3" cy="3" r="3"/></g>
<g transform="translate(189,567) scale(4.5)"><circle cx="3" cy="3" r="3"/></g>
<g transform="translate(243,567) scale(4.5)"><circle cx="3" cy="3" r="3"/></g>
<g transform="translate(405,567) scale(4.5)"><circle cx="3" cy="3" r="3"/></g>
<g transform="translate(621,567) scale(4.5)"><circle cx="3" cy="3" r="3"/></g>
<g transform="translate(648,567) scale(4.5)"><circle cx="3" cy="3" r="3"/></g>
<g transform="translate(675,567) scale(4.5)"><circle cx="3" cy="3" r="3"/></g>
<g transform="translate(702,567) scale(4.5)"><circle cx="3" cy="3" r="3"/></g>
<g transform="translate(729,567) scale(4.5)"><circle cx="3" cy="3" r="3"/></g>
<g transform="translate(783,567) scale(4.5)"><circle cx="3" cy="3" r="3"/></g>
<g transform="translate(810,567) scale(4.5)"><circle cx="3" cy="3" r="3"/></g>
<g transform="translate(837,567) scale(4.5)"><circle cx="3" cy="3" r="3"/></g>
<g transform="translate(864,567) scale(4.5)"><circle cx="3" cy="3" r="3"/></g>
<g transform="translate(891,567) scale(4.5)"><circle cx="3" cy="3" r="3"/></g>
<g transform="translate(918,567) scale(4.5)"><circle cx="3" cy="3" r="3"/></g>
<g transform="translate(54,594) scale(4.5)"><circle cx="3" cy="3" r="3"/></g>
<g transform="translate(81,594) scale(4.5)"><circle cx="3" cy="3" r="3"/></g>
<g transform="translate(216,594) scale(4.5)"><circle cx="3" cy="3" r="3"/></g>
<g transform="translate(243,594) scale(4.5)"><circle cx="3" cy="3" r="3"/></g>
<g transform="translate(513,594) scale(4.5)"><circle cx="3" cy="3" r="3"/></g>
<g transform="translate(567,594) scale(4.5)"><circle cx="3" cy="3" r="3"/></g>
<g transform="translate(702,594) scale(4.5)"><circle cx="3" cy="3" r="3"/></g>
<g transform="translate(810,594) scale(4.5)"><circle cx="3" cy="3" r="3"/></g>
<g transform="translate(837,594) scale(4.5)"><circle cx="3" cy="3" r="3"/></g>
<g transform="translate(54,621) scale(4.5)"><circle cx="3" cy="3" r="3"/></g>
<g transform="translate(108,621) scale(4.5)"><circle cx="3" cy="3" r="3"/></g>
<g transform="translate(135,621) scale(4.5)"><circle cx="3" cy="3" r="3"/></g>
<g transform="translate(162,621) scale(4.5)"><circle cx="3" cy="3" r="3"/></g>
<g transform="translate(270,621) scale(4.5)"><circle cx="3" cy="3" r="3"/></g>
<g transform="translate(297,621) scale(4.5)"><circle cx="3" cy="3" r="3"/></g>
<g transform="translate(324,621) scale(4.5)"><circle cx="3" cy="3" r="3"/></g>
<g transform="translate(432,621) scale(4.5)"><circle cx="3" cy="3" r="3"/></g>
<g transform="translate(513,621) scale(4.5)"><circle cx="3" cy="3" r="3"/></g>
<g transform="translate(621,621) scale(4.5)"><circle cx="3" cy="3" r="3"/></g>
<g transform="translate(729,621) scale(4.5)"><circle cx="3" cy="3" r="3"/></g>
<g transform="translate(837,621) scale(4.5)"><circle cx="3" cy="3" r="3"/></g>
<g transform="translate(54,648) scale(4.5)"><circle cx="3" cy="3" r="3"/></g>
<g transform="translate(135,648) scale(4.5)"><circle cx="3" cy="3" r="3"/></g>
<g transform="translate(162,648) scale(4.5)"><circle cx="3" cy="3" r="3"/></g>
<g transform="translate(216,648) scale(4.5)"><circle cx="3" cy="3" r="3"/></g>
<g transform="translate(243,648) scale(4.5)"><circle cx="3" cy="3" r="3"/></g>
<g transform="translate(270,648) scale(4.5)"><circle cx="3" cy="3" r="3"/></g>
<g transform="translate(351,648) scale(4.5)"><circle cx="3" cy="3" r="3"/></g>
<g transform="translate(378,648) scale(4.5)"><circle cx="3" cy="3" r="3"/></g>
<g transform="translate(405,648) scale(4.5)"><circle cx="3" cy="3" r="3"/></g>
<g transform="translate(432,648) scale(4.5)"><circle cx="3" cy="3" r="3"/></g>
<g transform="translate(459,648) scale(4.5)"><circle cx="3" cy="3" r="3"/></g>
<g transform="translate(486,648) scale(4.5)"><circle cx="3" cy="3" r="3"/></g>
<g transform="translate(513,648) scale(4.5)"><circle cx="3" cy="3" r="3"/></g>
<g transform="translate(540,648) scale(4.5)"><circle cx="3" cy="3" r="3"/></g>
<g transform="translate(567,648) scale(4.5)"><circle cx="3" cy="3" r="3"/></g>
<g transform="translate(675,648) scale(4.5)"><circle cx="3" cy="3" r="3"/></g>
<g transform="translate(702,648) scale(4.5)"><circle cx="3" cy="3" r="3"/></g>
<g transform="translate(837,648) scale(4.5)"><circle cx="3" cy="3" r="3"/></g>
<g transform="translate(891,648) scale(4.5)"><circle cx="3" cy="3" r="3"/></g>
<g transform="translate(54,675) scale(4.5)"><circle cx="3" cy="3" r="3"/></g>
<g transform="translate(108,675) scale(4.5)"><circle cx="3" cy="3" r="3"/></g>
<g transform="translate(135,675) scale(4.5)"><circle cx="3" cy="3" r="3"/></g>
<g transform="translate(189,675) scale(4.5)"><circle cx="3" cy="3" r="3"/></g>
<g transform="translate(243,675) scale(4.5)"><circle cx="3" cy="3" r="3"/></g>
<g transform="translate(270,675) scale(4.5)"><circle cx="3" cy="3" r="3"/></g>
<g transform="translate(351,675) scale(4.5)"><circle cx="3" cy="3" r="3"/></g>
<g transform="translate(405,675) scale(4.5)"><circle cx="3" cy="3" r="3"/></g>
<g transform="translate(459,675) scale(4.5)"><circle cx="3" cy="3" r="3"/></g>
<g transform="translate(513,675) scale(4.5)"><circle cx="3" cy="3" r="3"/></g>
<g transform="translate(540,675) scale(4.5)"><circle cx="3" cy="3" r="3"/></g>
<g transform="translate(621,675) scale(4.5)"><circle cx="3" cy="3" r="3"/></g>
<g transform="translate(675,675) scale(4.5)"><circle cx="3" cy="3" r="3"/></g>
<g transform="translate(837,675) scale(4.5)"><circle cx="3" cy="3" r="3"/></g>
<g transform="translate(864,675) scale(4.5)"><circle cx="3" cy="3" r="3"/></g>
<g transform="translate(891,675) scale(4.5)"><circle cx="3" cy="3" r="3"/></g>
<g transform="translate(918,675) scale(4.5)"><circle cx="3" cy="3" r="3"/></g>
<g transform="translate(54,702) scale(4.5)"><circle cx="3" cy="3" r="3"/></g>
<g transform="translate(189,702) scale(4.5)"><circle cx="3" cy="3" r="3"/></g>
<g transform="translate(216,702) scale(4.5)"><circle cx="3" cy="3" r="3"/></g>
<g transform="translate(270,702) scale(4.5)"><circle cx="3" cy="3" r="3"/></g>
<g transform="translate(351,702) scale(4.5)"><circle cx="3" cy="3" r="3"/></g>
<g transform="translate(405,702) scale(4.5)"><circle cx="3" cy="3" r="3"/></g>
<g transform="translate(486,702) scale(4.5)"><circle cx="3" cy="3" r="3"/></g>
<g transform="translate(594,702) scale(4.5)"><circle cx="3" cy="3" r="3"/></g>
<g transform="translate(648,702) scale(4.5)"><circle cx="3" cy="3" r="3"/></g>
<g transform="translate(675,702) scale(4.5)"><circle cx="3" cy="3" r="3"/></g>
<g transform="translate(702,702) scale(4.5)"><circle cx="3" cy="3" r="3"/></g>
<g transform="translate(729,702) scale(4.5)"><circle cx="3" cy="3" r="3"/></g>
<g transform="translate(756,702) scale(4.5)"><circle cx="3" cy="3" r="3"/></g>
<g transform="translate(783,702) scale(4.5)"><circle cx="3" cy="3" r="3"/></g>
<g transform="translate(810,702) scale(4.5)"><circle cx="3" cy="3" r="3"/></g>
<g transform="translate(837,702) scale(4.5)"><circle cx="3" cy="3" r="3"/></g>
<g transform="translate(891,702) scale(4.5)"><circle cx="3" cy="3" r="3"/></g>
<g transform="translate(918,702) scale(4.5)"><circle cx="3" cy="3" r="3"/></g>
<g transform="translate(270,729) scale(4.5)"><circle cx="3" cy="3" r="3"/></g>
<g transform="translate(297,729) scale(4.5)"><circle cx="3" cy="3" r="3"/></g>
<g transform="translate(324,729) scale(4.5)"><circle cx="3" cy="3" r="3"/></g>
<g transform="translate(378,729) scale(4.5)"><circle cx="3" cy="3" r="3"/></g>
<g transform="translate(405,729) scale(4.5)"><circle cx="3" cy="3" r="3"/></g>
<g transform="translate(486,729) scale(4.5)"><circle cx="3" cy="3" r="3"/></g>
<g transform="translate(540,729) scale(4.5)"><circle cx="3" cy="3" r="3"/></g>
<g transform="translate(594,729) scale(4.5)"><circle cx="3" cy="3" r="3"/></g>
<g transform="translate(621,729) scale(4.5)"><circle cx="3" cy="3" r="3"/></g>
<g transform="translate(648,729) scale(4.5)"><circle cx="3" cy="3" r="3"/></g>
<g transform="translate(675,729) scale(4.5)"><circle cx="3" cy="3" r="3"/></g>
<g transform="translate(702,729) scale(4.5)"><circle cx="3" cy="3" r="3"/></g>
<g transform="translate(810,729) scale(4.5)"><circle cx="3" cy="3" r="3"/></g>
<g transform="translate(837,729) scale(4.5)"><circle cx="3" cy="3" r="3"/></g>
<g transform="translate(864,729) scale(4.5)"><circle cx="3" cy="3" r="3"/></g>
<g transform="translate(891,729) scale(4.5)"><circle cx="3" cy="3" r="3"/></g>
<g transform="translate(918,729) scale(4.5)"><circle cx="3" cy="3" r="3"/></g>
<g transform="translate(351,756) scale(4.5)"><circle cx="3" cy="3" r="3"/></g>
<g transform="translate(459,756) scale(4.5)"><circle cx="3" cy="3" r="3"/></g>
<g transform="translate(486,756) scale(4.5)"><circle cx="3" cy="3" r="3"/></g>
<g transform="translate(567,756) scale(4.5)"><circle cx="3" cy="3" r="3"/></g>
<g transform="translate(621,756) scale(4.5)"><circle cx="3" cy="3" r="3"/></g>
<g transform="translate(675,756) scale(4.5)"><circle cx="3" cy="3" r="3"/></g>
<g transform="translate(702,756) scale(4.5)"><circle cx="3" cy="3" r="3"/></g>
<g transform="translate(756,756) scale(4.5)"><circle cx="3" cy="3" r="3"/></g>
<g transform="translate(810,756) scale(4.5)"><circle cx="3" cy="3" r="3"/></g>
<g transform="translate(864,756) scale(4.5)"><circle cx="3" cy="3" r="3"/></g>
<g transform="translate(891,756) scale(4.5)"><circle cx="3" cy="3" r="3"/></g>
<g transform="translate(405,783) scale(4.5)"><circle cx="3" cy="3" r="3"/></g>
<g transform="translate(432,783) scale(4.5)"><circle cx="3" cy="3" r="3"/></g>
<g transform="translate(567,783) scale(4.5)"><circle cx="3" cy="3" r="3"/></g>
<g transform="translate(621,783) scale(4.5)"><circle cx="3" cy="3" r="3"/></g>
<g transform="translate(648,783) scale(4.5)"><circle cx="3" cy="3" r="3"/></g>
<g transform="translate(702,783) scale(4.5)"><circle cx="3" cy="3" r="3"/></g>
<g transform="translate(810,783) scale(4.5)"><circle cx="3" cy="3" r="3"/></g>
<g transform="translate(837,783) scale(4.5)"><circle cx="3" cy="3" r="3"/></g>
<g transform="translate(864,783) scale(4.5)"><circle cx="3" cy="3" r="3"/></g>
<g transform="translate(891,783) scale(4.5)"><circle cx="3" cy="3" r="3"/></g>
<g transform="translate(918,783) scale(4.5)"><circle cx="3" cy="3" r="3"/></g>
<g transform="translate(270,810) scale(4.5)"><circle cx="3" cy="3" r="3"/></g>
<g transform="translate(351,810) scale(4.5)"><circle cx="3" cy="3" r="3"/></g>
<g transform="translate(459,810) scale(4.5)"><circle cx="3" cy="3" r="3"/></g>
<g transform="translate(540,810) scale(4.5)"><circle cx="3" cy="3" r="3"/></g>
<g transform="translate(567,810) scale(4.5)"><circle cx="3" cy="3" r="3"/></g>
<g transform="translate(621,810) scale(4.5)"><circle cx="3" cy="3" r="3"/></g>
<g transform="translate(702,810) scale(4.5)"><circle cx="3" cy="3" r="3"/></g>
<g transform="translate(729,810) scale(4.5)"><circle cx="3" cy="3" r="3"/></g>
<g transform="translate(756,810) scale(4.5)"><circle cx="3" cy="3" r="3"/></g>
<g transform="translate(783,810) scale(4.5)"><circle cx="3" cy="3" r="3"/></g>
<g transform="translate(810,810) scale(4.5)"><circle cx="3" cy="3" r="3"/></g>
<g transform="translate(837,810) scale(4.5)"><circle cx="3" cy="3" r="3"/></g>
<g transform="translate(891,810) scale(4.5)"><circle cx="3" cy="3" r="3"/></g>
<g transform="translate(918,810) scale(4.5)"><circle cx="3" cy="3" r="3"/></g>
<g transform="translate(270,837) scale(4.5)"><circle cx="3" cy="3" r="3"/></g>
<g transform="translate(297,837) scale(4.5)"><circle cx="3" cy="3" r="3"/></g>
<g transform="translate(324,837) scale(4.5)"><circle cx="3" cy="3" r="3"/></g>
<g transform="translate(378,837) scale(4.5)"><circle cx="3" cy="3" r="3"/></g>
<g transform="translate(432,837) scale(4.5)"><circle cx="3" cy="3" r="3"/></g>
<g transform="translate(459,837) scale(4.5)"><circle cx="3" cy="3" r="3"/></g>
<g transform="translate(486,837) scale(4.5)"><circle cx="3" cy="3" r="3"/></g>
<g transform="translate(540,837) scale(4.5)"><circle cx="3" cy="3" r="3"/></g>
<g transform="translate(621,837) scale(4.5)"><circle cx="3" cy="3" r="3"/></g>
<g transform="translate(648,837) scale(4.5)"><circle cx="3" cy="3" r="3"/></g>
<g transform="translate(702,837) scale(4.5)"><circle cx="3" cy="3" r="3"/></g>
<g transform="translate(729,837) scale(4.5)"><circle cx="3" cy="3" r="3"/></g>
<g transform="translate(810,837) scale(4.5)"><circle cx="3" cy="3" r="3"/></g>
<g transform="translate(864,837) scale(4.5)"><circle cx="3" cy="3" r="3"/></g>
<g transform="translate(891,837) scale(4.5)"><circle cx="3" cy="3" r="3"/></g>
<g transform="translate(270,864) scale(4.5)"><circle cx="3" cy="3" r="3"/></g>
<g transform="translate(297,864) scale(4.5)"><circle cx="3" cy="3" r="3"/></g>
<g transform="translate(324,864) scale(4.5)"><circle cx="3" cy="3" r="3"/></g>
<g transform="translate(351,864) scale(4.5)"><circle cx="3" cy="3" r="3"/></g>
<g transform="translate(432,864) scale(4.5)"><circle cx="3" cy="3" r="3"/></g>
<g transform="translate(567,864) scale(4.5)"><circle cx="3" cy="3" r="3"/></g>
<g transform="translate(648,864) scale(4.5)"><circle cx="3" cy="3" r="3"/></g>
<g transform="translate(702,864) scale(4.5)"><circle cx="3" cy="3" r="3"/></g>
<g transform="translate(729,864) scale(4.5)"><circle cx="3" cy="3" r="3"/></g>
<g transform="translate(756,864) scale(4.5)"><circle cx="3" cy="3" r="3"/></g>
<g transform="translate(864,864) scale(4.5)"><circle cx="3" cy="3" r="3"/></g>
<g transform="translate(324,891) scale(4.5)"><circle cx="3" cy="3" r="3"/></g>
<g transform="translate(405,891) scale(4.5)"><circle cx="3" cy="3" r="3"/></g>
<g transform="translate(594,891) scale(4.5)"><circle cx="3" cy="3" r="3"/></g>
<g transform="translate(621,891) scale(4.5)"><circle cx="3" cy="3" r="3"/></g>
<g transform="translate(648,891) scale(4.5)"><circle cx="3" cy="3" r="3"/></g>
<g transform="translate(729,891) scale(4.5)"><circle cx="3" cy="3" r="3"/></g>
<g transform="translate(783,891) scale(4.5)"><circle cx="3" cy="3" r="3"/></g>
<g transform="translate(864,891) scale(4.5)"><circle cx="3" cy="3" r="3"/></g>
<g transform="translate(297,918) scale(4.5)"><circle cx="3" cy="3" r="3"/></g>
<g transform="translate(324,918) scale(4.5)"><circle cx="3" cy="3" r="3"/></g>
<g transform="translate(432,918) scale(4.5)"><circle cx="3" cy="3" r="3"/></g>
<g transform="translate(459,918) scale(4.5)"><circle cx="3" cy="3" r="3"/></g>
<g transform="translate(486,918) scale(4.5)"><circle cx="3" cy="3" r="3"/></g>
<g transform="translate(513,918) scale(4.5)"><circle cx="3" cy="3" r="3"/></g>
<g transform="translate(594,918) scale(4.5)"><circle cx="3" cy="3" r="3"/></g>
<g transform="translate(621,918) scale(4.5)"><circle cx="3" cy="3" r="3"/></g>
<g transform="translate(648,918) scale(4.5)"><circle cx="3" cy="3" r="3"/></g>
<g transform="translate(702,918) scale(4.5)"><circle cx="3" cy="3" r="3"/></g>
<g transform="translate(729,918) scale(4.5)"><circle cx="3" cy="3" r="3"/></g>
<g transform="translate(864,918) scale(4.5)"><circle cx="3" cy="3" r="3"/></g>
<g transform="translate(891,918) scale(4.5)"><circle cx="3" cy="3" r="3"/></g>
</g></mask></defs>
<rect width="999" height="999" fill="#ffffff" x="0" y="0" />
<rect x="0" y="0" width="999" height="999" mask="url(#qrmask)" fill="#000000" />
<g transform="translate(54,54)"  fill="#000000"><g transform="scale(13.5)"><path d="M0,7L0,7c0,3.9,3.1,7,7,7h0c3.9,0,7-3.1,7-7v0c0-3.9-3.1-7-7-7h0C3.1,0,0,3.1,0,7z M7,12L7,12c-2.8,0-5-2.2-5-5v0 c0-2.8,2.2-5,5-5h0c2.8,0,5,2.2,5,5v0C12,9.8,9.8,12,7,12z"/></g></g>
<g transform="translate(756,54)"  fill="#000000"><g transform="scale(13.5)"><path d="M0,7L0,7c0,3.9,3.1,7,7,7h0c3.9,0,7-3.1,7-7v0c0-3.9-3.1-7-7-7h0C3.1,0,0,3.1,0,7z M7,12L7,12c-2.8,0-5-2.2-5-5v0 c0-2.8,2.2-5,5-5h0c2.8,0,5,2.2,5,5v0C12,9.8,9.8,12,7,12z"/></g></g>
<g transform="translate(54,756)"  fill="#000000"><g transform="scale(13.5)"><path d="M0,7L0,7c0,3.9,3.1,7,7,7h0c3.9,0,7-3.1,7-7v0c0-3.9-3.1-7-7-7h0C3.1,0,0,3.1,0,7z M7,12L7,12c-2.8,0-5-2.2-5-5v0 c0-2.8,2.2-5,5-5h0c2.8,0,5,2.2,5,5v0C12,9.8,9.8,12,7,12z"/></g></g>
<g transform="translate(108,108)"  fill="#000000"><g transform="scale(13.5)"><circle cx="3" cy="3" r="3"/></g></g>
<g transform="translate(810,108)"  fill="#000000"><g transform="scale(13.5)"><circle cx="3" cy="3" r="3"/></g></g>
<g transform="translate(108,810)"  fill="#000000"><g transform="scale(13.5)"><circle cx="3" cy="3" r="3"/></g></g>
</svg>